# xmcd
#
# Track frame offsets: 
#        150
#        12780
#        24271
#        38177
#        51396
#        64990
#        78610
#        94438
#        106878
#        122340
#        133165
#        141142
#        154984
#        166463
#        178165
#        187809
#        202392
#        214637
#        226361
#        241979
#        254945
#
# Disc length: 3564 seconds
#
# Revision: 3
# Processed by: cddbd v1.5.2PL0 Copyright (c) Steve Scherf et al.
# Submitted via: ExactAudioCopyFreeDBPlugin 1.0
#
DISCID=360dea15
DTITLE=Various Artist - Populiariausiu lietuvisku dainu Karaoke-1
DYEAR=2002
DGENRE=Pop
TTITLE0=Isgalvotas gyvenimas
TTITLE1=Karaoke - Zemyn upe
TTITLE2=Nereikia asaru
TTITLE3=Pasauki mane
TTITLE4=Svelnus, pukeli
TTITLE5=Berniukai
TTITLE6=Sirdele mano
TTITLE7=Skinsiu raudona roze
TTITLE8=Mazyte mano
TTITLE9=Kai sirpsta vysnios Suvalkijoj
TTITLE10=Ant kalno murai
TTITLE11=Vel geguzio ziedai
TTITLE12=Ir kam gi tu pabeldei
TTITLE13=Ko liudi, berzeli
TTITLE14=Saulute nusileido
TTITLE15=Senas malunas
TTITLE16=Pusele
TTITLE17=Astros ziedas
TTITLE18=Suvalkijos berniokas
TTITLE19=Atskrend sakalelis
TTITLE20=Mano namas vyjokliais apauges
EXTD=
EXTT0=
EXTT1=
EXTT2=
EXTT3=
EXTT4=
EXTT5=
EXTT6=
EXTT7=
EXTT8=
EXTT9=
EXTT10=
EXTT11=
EXTT12=
EXTT13=
EXTT14=
EXTT15=
EXTT16=
EXTT17=
EXTT18=
EXTT19=
EXTT20=
PLAYORDER=
